<svg width="32" height="32" viewBox="0 0 32 32" fill="none" xmlns="http://www.w3.org/2000/svg">
<g clip-path="url(#clip0_166_3530)">
<path d="M15.9941 5.8117C13.0737 5.8117 10.1533 5.80696 7.23445 5.8196C6.92882 5.82118 6.78836 5.68683 6.72971 5.42288C6.57227 4.71005 6.42563 3.99406 6.28053 3.27965C6.23268 3.04573 6.3114 2.90822 6.56455 2.87187C6.87326 2.82761 7.17579 2.74384 7.48142 2.69168C7.65892 2.66165 7.73456 2.58579 7.70369 2.39296C7.64812 2.04208 7.60644 1.68803 7.55859 1.33399C7.52464 1.07794 7.6296 0.91356 7.87656 0.864563C9.01879 0.641705 10.1595 0.412525 11.3048 0.208633C11.5811 0.159636 11.8311 0.347722 12.0905 0.433072C12.4486 0.550033 12.799 0.687541 13.1524 0.818727C13.3392 0.888271 13.4349 0.832952 13.4272 0.619577C13.4241 0.526324 13.4179 0.431491 13.4256 0.338239C13.4426 0.137508 13.5306 0 13.7498 0C15.247 0 16.7427 0 18.24 0C18.4777 0 18.5533 0.14225 18.5626 0.361947C18.5842 0.915141 18.5857 0.910399 19.1028 0.717571C19.5674 0.545291 20.0382 0.384075 20.5059 0.221278C20.739 0.140669 20.9597 0.263952 21.1789 0.303466C22.1699 0.480488 23.1546 0.695444 24.1456 0.881949C24.4111 0.930946 24.479 1.0811 24.445 1.31976C24.3972 1.65326 24.3493 1.98676 24.2907 2.31867C24.249 2.55892 24.32 2.68062 24.5732 2.71065C24.8726 2.747 25.1674 2.82129 25.4638 2.87819C25.6922 2.92244 25.771 3.08682 25.7277 3.29229C25.5703 4.03515 25.3974 4.77327 25.2338 5.51455C25.1844 5.74057 25.0455 5.81486 24.834 5.8117C24.3293 5.80695 23.8245 5.81012 23.3183 5.81012C20.8794 5.81012 18.4375 5.81012 15.9941 5.8117C15.9941 5.81012 15.9941 5.81012 15.9941 5.8117ZM14.0307 2.91296C14.0322 3.58944 14.0369 4.2675 14.0276 4.94397C14.0261 5.12257 14.0739 5.19528 14.2576 5.19528C15.4153 5.18896 16.5714 5.18738 17.7291 5.19212C17.9127 5.1937 17.9621 5.12257 17.9621 4.94397C17.9575 3.58944 17.9575 2.2349 17.9621 0.881949C17.9621 0.693863 17.9174 0.614835 17.7167 0.616416C16.5683 0.624319 15.4214 0.622738 14.273 0.616416C14.077 0.614835 14.0245 0.690702 14.0276 0.881949C14.0353 1.55843 14.0307 2.2349 14.0307 2.91296ZM10.0514 5.18896V5.19054C10.4466 5.19054 10.8402 5.18738 11.2353 5.19212C11.3851 5.1937 11.4437 5.15261 11.4283 4.98033C11.3187 3.69217 11.2168 2.40402 11.1227 1.11429C11.1088 0.930946 11.0408 0.88511 10.8834 0.916721C10.0391 1.0811 9.19476 1.24864 8.34889 1.40511C8.20688 1.43198 8.19917 1.49678 8.21769 1.61849C8.27172 1.97885 8.31493 2.3408 8.36433 2.70275C8.46775 3.45351 8.58197 4.20427 8.6715 4.95662C8.69619 5.16051 8.77646 5.19844 8.95242 5.19212C9.3167 5.18106 9.68406 5.18896 10.0514 5.18896ZM21.9198 5.19212V5.19054C22.2964 5.19054 22.6715 5.17789 23.0466 5.19528C23.238 5.20318 23.3074 5.12099 23.3291 4.94871C23.3646 4.67054 23.4016 4.39236 23.4417 4.11418C23.5544 3.3081 23.6686 2.50202 23.7844 1.69593C23.8122 1.50627 23.7674 1.42724 23.5529 1.39089C22.7595 1.25496 21.9723 1.08584 21.1835 0.921463C20.9736 0.877207 20.8748 0.902496 20.864 1.16645C20.8316 1.88718 20.7652 2.60633 20.7112 3.32549C20.6711 3.86762 20.634 4.40975 20.5893 4.95029C20.5738 5.13522 20.6402 5.20002 20.8208 5.1937C21.1866 5.18422 21.554 5.19212 21.9198 5.19212ZM18.5641 4.10628C18.5641 4.3971 18.5703 4.68792 18.561 4.97874C18.5564 5.13522 18.6089 5.19686 18.7663 5.1937C19.0966 5.1858 19.4254 5.18896 19.7557 5.19528C19.9163 5.19844 19.9811 5.13364 19.9904 4.9661C20.0243 4.36865 20.0598 3.76962 20.1169 3.17375C20.1324 3.00463 20.0783 2.9825 19.9441 2.98409C19.5597 2.98883 19.1738 2.99199 18.7895 2.98409C18.6259 2.98092 18.5579 3.03466 18.5626 3.20694C18.5703 3.50567 18.5641 3.80597 18.5641 4.10628ZM13.4272 4.10786C13.4287 4.10786 13.4303 4.10786 13.4303 4.10786C13.4303 3.80755 13.4241 3.50725 13.4333 3.20694C13.438 3.03624 13.3762 2.97776 13.208 2.9825C12.8422 2.99357 12.4748 2.99041 12.109 2.98092C11.9438 2.97618 11.8713 3.03308 11.8867 3.20694C11.9392 3.80281 11.9932 4.40026 12.0349 4.99613C12.0457 5.16367 12.1229 5.1937 12.2618 5.19212C12.5829 5.18738 12.9024 5.18738 13.2234 5.1937C13.3778 5.19686 13.4333 5.1368 13.4287 4.97874C13.421 4.6895 13.4272 4.39868 13.4272 4.10786ZM19.3837 2.36925C19.3837 2.36767 19.3837 2.36767 19.3837 2.36925C19.5952 2.36767 19.8051 2.36293 20.0166 2.36925C20.1432 2.37241 20.1972 2.32341 20.2049 2.19223C20.2219 1.84609 20.242 1.49995 20.2697 1.1538C20.2821 1.00365 20.2312 0.973621 20.0999 1.02262C19.7557 1.15064 19.4115 1.27709 19.0627 1.39563C18.4499 1.60268 18.5842 1.5284 18.5626 2.13849C18.5564 2.30603 18.6073 2.38031 18.7787 2.37241C18.9793 2.36135 19.1815 2.36925 19.3837 2.36925ZM12.6091 2.36767C12.7017 2.36767 12.7928 2.36925 12.8838 2.36767C13.5044 2.35028 13.4179 2.49095 13.4287 1.79551C13.4303 1.68961 13.4611 1.56949 13.3099 1.51891C12.8314 1.35928 12.3544 1.19174 11.8774 1.02262C11.7478 0.976782 11.7061 1.03368 11.7262 1.1538C11.7802 1.4794 11.774 1.80973 11.7895 2.13691C11.7972 2.29338 11.8636 2.37715 12.0303 2.36925C12.2232 2.35977 12.4161 2.36609 12.6091 2.36767ZM7.62497 5.1937C8.08186 5.19528 8.0834 5.19528 8.03247 4.77801C7.99851 4.49984 7.96301 4.22008 7.92133 3.9419C7.80093 3.11369 7.99388 3.21801 7.12949 3.38713C7.11096 3.39029 7.09399 3.39661 7.07701 3.40135C6.97204 3.4298 6.935 3.48038 6.96433 3.60524C7.06157 4.01461 7.16344 4.42555 7.21901 4.84282C7.26069 5.14786 7.39035 5.25218 7.62497 5.1937ZM24.2984 5.1858C24.692 5.19528 24.6936 5.19528 24.7815 4.80963C24.8356 4.57254 24.8788 4.33388 24.9328 4.0968C25.0856 3.43612 25.0872 3.4377 24.4466 3.29704C24.4111 3.28913 24.3756 3.28123 24.3401 3.27491C24.2274 3.25436 24.161 3.31126 24.1456 3.41874C24.0684 3.96403 23.9959 4.5109 23.9218 5.05619C23.911 5.13522 23.9418 5.18422 24.0237 5.1858C24.1163 5.18738 24.2073 5.1858 24.2984 5.1858Z" fill="#730220"/>
<path d="M28.0956 24.8494C28.1033 24.9474 28.0601 25.0406 28.0168 25.1339C27.4226 26.4062 26.623 27.5316 25.6768 28.551C25.3959 28.8529 25.2832 28.8545 24.9992 28.5479C24.8711 28.4088 24.8001 28.3914 24.6534 28.5305C23.5961 29.5357 22.4014 30.326 21.0786 30.9171C19.2464 31.7359 17.3293 32.0931 15.3427 31.9793C12.802 31.8354 10.4883 31.0009 8.43071 29.4472C8.04637 29.1564 7.679 28.8466 7.32553 28.521C7.2005 28.4041 7.1295 28.4104 7.01373 28.5258C6.6865 28.8561 6.63402 28.8529 6.30524 28.5131C5.31891 27.4984 4.56257 26.3193 3.93589 25.047C3.86643 24.9047 3.85871 24.7577 3.96367 24.6234C4.06709 24.4922 4.19366 24.4938 4.33721 24.5475C4.88672 24.7561 5.46863 24.7625 6.04129 24.8225C6.16632 24.8352 6.22343 24.7751 6.26511 24.666C6.46114 24.1571 6.71428 23.6798 7.0199 23.2309C7.22057 22.9369 7.47216 22.9306 7.63269 23.242C8.00469 23.9659 8.43534 24.6487 8.9478 25.2793C9.09135 25.4547 9.16698 25.4437 9.30745 25.3014C9.57294 25.0343 9.6532 25.0217 9.93104 25.2761C10.4914 25.7914 11.0717 26.2782 11.7355 26.6512C12.9425 27.3309 14.2283 27.7181 15.6113 27.7766C17.2058 27.8445 18.7061 27.4952 20.1154 26.7382C20.8254 26.3557 21.4537 25.853 22.0417 25.2967C22.3165 25.0375 22.4168 25.0248 22.687 25.2967C22.8305 25.4421 22.9169 25.4484 23.0512 25.2793C23.5313 24.6724 23.9743 24.0449 24.3061 23.3384C24.5099 22.9053 24.7738 22.8816 25.0316 23.2831C25.3033 23.7051 25.5441 24.1476 25.7139 24.625C25.7663 24.7735 25.8451 24.8383 25.9979 24.8209C26.5705 24.7561 27.1494 24.7388 27.702 24.5364C27.9474 24.4495 28.0956 24.5791 28.0956 24.8494ZM15.5573 31.3723C16.8029 31.3755 17.6318 31.2949 18.4499 31.1147C19.6739 30.846 20.8393 30.4224 21.9352 29.7823C22.761 29.3002 23.5251 28.7455 24.2259 28.0943C24.3494 27.9789 24.3771 27.8951 24.2351 27.7529C23.7042 27.2234 23.1871 26.6765 22.6669 26.136C22.3829 25.842 22.3829 25.8388 22.0757 26.1059C21.3796 26.7097 20.6248 27.2202 19.7866 27.5932C18.4036 28.2065 16.965 28.4973 15.4508 28.3977C14.2823 28.3203 13.171 28.0405 12.1105 27.5411C11.2461 27.1349 10.4636 26.6022 9.75816 25.951C9.68407 25.8831 9.63005 25.8278 9.53281 25.9289C8.94317 26.5437 8.3489 27.1554 7.75155 27.7639C7.63115 27.8856 7.63269 27.9868 7.76081 28.0895C8.04174 28.314 8.30414 28.5605 8.58815 28.785C10.7615 30.5094 13.2358 31.3186 15.5573 31.3723ZM24.6982 23.9422C24.3185 24.6344 23.8847 25.2588 23.38 25.8309C23.2997 25.9226 23.3383 25.9732 23.4032 26.0395C23.9866 26.6354 24.5701 27.2313 25.1505 27.8319C25.2709 27.9552 25.348 27.9994 25.4931 27.8366C26.109 27.1491 26.6354 26.3968 27.0907 25.5907C27.1293 25.5211 27.1972 25.4579 27.1756 25.3615C27.0876 25.3157 26.9935 25.3362 26.907 25.3504C26.5443 25.4089 26.1769 25.4152 25.8142 25.4547C25.4854 25.4911 25.3264 25.3488 25.2246 25.0517C25.098 24.6692 24.9421 24.2994 24.6982 23.9422ZM4.75397 25.3141C5.27878 26.2814 5.86224 27.1475 6.58462 27.9141C6.69576 28.0326 6.75133 27.9188 6.80535 27.8635C7.39807 27.2613 7.98617 26.6544 8.5758 26.0506C8.65452 25.97 8.69774 25.9115 8.59741 25.7977C8.13898 25.284 7.74074 24.7229 7.40734 24.116C7.32398 23.9659 7.25915 23.9738 7.19124 24.1255C7.03688 24.4653 6.85938 24.7972 6.72972 25.1465C6.64174 25.382 6.50899 25.4626 6.27437 25.4516C5.78352 25.4263 5.29267 25.3899 4.75397 25.3141Z" fill="#730220"/>
<path d="M28.5694 8.57462C28.3178 8.86703 28.0862 9.15943 27.7235 9.3159C26.9934 9.63043 26.1105 9.50241 25.5934 8.85596C25.0578 8.18581 25.0238 7.18215 25.5224 6.50094C26.0704 5.75175 26.8406 5.38348 27.7081 5.21278C28.7716 5.00257 29.7749 5.11005 30.6084 5.92087C31.1919 6.48829 31.5484 7.1869 31.7275 7.98033C32.0223 9.29061 31.7599 10.5124 31.1409 11.6741C30.9434 12.0455 30.7087 12.3917 30.4278 12.7046C30.2472 12.9069 30.2626 12.9575 30.5235 13.0144C31.1008 13.1393 31.5453 13.4649 31.8865 13.9438C32.0871 14.2267 32.0192 14.448 31.7028 14.5539C30.4649 14.9648 29.3998 15.6539 28.5107 16.6275C27.6648 17.5553 27.0721 18.6111 26.9456 19.9009C26.907 20.2913 27.0721 20.6453 27.3376 20.7085C27.7636 20.8113 28.1387 20.5947 28.2637 20.1711C28.2869 20.0905 28.3023 20.0068 28.307 19.923C28.3162 19.7744 28.3872 19.6796 28.5184 19.6227C28.6512 19.5658 28.75 19.6369 28.8441 19.7144C29.1436 19.9625 29.3257 20.2976 29.3859 20.6722C29.6005 21.9825 28.8086 22.9102 27.6741 23.1315C26.2556 23.4097 25.0593 22.3302 24.7861 20.9883C24.7105 20.6184 24.6719 20.2486 24.6734 19.8708C24.6781 16.852 24.6781 13.8331 24.6796 10.8143C24.6796 10.4049 24.8046 10.3053 25.206 10.3591C25.7076 10.427 26.2016 10.5187 26.6399 10.8032C26.8282 10.9249 26.9934 11.0735 27.1354 11.2458C27.2188 11.3469 27.2805 11.3596 27.3824 11.2695C28.1866 10.5614 28.6188 9.68259 28.5694 8.57462ZM27.0104 6.14215C27.2728 6.24647 27.5336 6.33182 27.7791 6.45036C28.6574 6.87553 29.1605 7.5852 29.1914 8.58569C29.2393 10.073 28.5617 11.1889 27.4148 12.0408C27.1941 12.2052 26.9949 12.1625 26.8591 11.9238C26.5766 11.4291 26.146 11.1588 25.6088 11.0466C25.2847 10.9786 25.2831 10.9786 25.2831 11.3058C25.2831 14.2393 25.2862 17.1744 25.2816 20.1079C25.2816 20.5205 25.3696 20.9108 25.5131 21.287C25.7478 21.905 26.183 22.3191 26.8113 22.4803C27.2188 22.5847 27.6371 22.5941 28.0152 22.3523C27.9952 22.2701 27.9519 22.2559 27.9072 22.2448C26.7557 21.9635 26.2865 20.8856 26.3451 19.8724C26.393 19.0442 26.6615 18.2761 27.0721 17.5632C27.7961 16.3035 28.8024 15.3426 30.0419 14.625C30.4047 14.4148 30.7859 14.2472 31.1672 14.067C30.9773 13.8426 30.755 13.743 30.5158 13.6593C30.1994 13.547 29.8737 13.517 29.5449 13.4965C29.4121 13.4886 29.3072 13.4443 29.264 13.3147C29.2238 13.1946 29.2331 13.0745 29.335 12.978C29.4091 12.9085 29.4785 12.8326 29.5511 12.7599C30.4633 11.8685 31.0668 10.8048 31.2058 9.51031C31.32 8.4466 31.1039 7.46665 30.4093 6.6179C29.5202 5.52573 28.0693 5.48148 27.0104 6.14215ZM27.7837 8.49085C27.0906 8.35651 26.6816 7.62313 27.1447 7.02252C27.2188 6.92611 27.2218 6.85498 27.0798 6.82811C26.8375 6.78386 26.5983 6.72063 26.3497 6.70483C26.1429 6.69218 26.0271 6.7886 25.9361 6.96088C25.7092 7.39237 25.72 7.82702 25.9284 8.25693C26.2618 8.94131 27.2898 9.0804 27.7837 8.49085ZM27.4981 21.3629C27.8794 21.6632 28.2931 21.8497 28.6249 21.6901C28.9259 21.5462 28.8102 21.0879 28.7916 20.756C28.7901 20.7322 28.7685 20.7101 28.7453 20.6659C28.4459 21.0784 28.0615 21.3186 27.4981 21.3629ZM28.0924 7.51249C28.1032 7.38763 27.9859 7.29754 27.8454 7.29754C27.6988 7.29754 27.5537 7.37972 27.5522 7.56465C27.5506 7.73377 27.6371 7.84757 27.8192 7.84757C27.9967 7.84599 28.0816 7.74641 28.0924 7.51249Z" fill="#730220"/>
<path d="M5.05184 9.48483C4.97775 9.48325 4.90521 9.48325 4.83112 9.48167C4.2245 9.35049 3.72747 9.05966 3.4342 8.44641C3.23508 9.45164 3.91579 10.7366 4.61039 11.293C4.69528 11.361 4.76166 11.3625 4.84346 11.2693C5.35438 10.6813 6.01811 10.4284 6.76673 10.381C7.25141 10.3494 7.30697 10.4095 7.30697 10.9073C7.30697 13.8013 7.3008 16.6953 7.3116 19.5893C7.31469 20.3685 7.23906 21.124 6.91954 21.8384C6.91182 21.8495 6.91028 21.8606 6.91337 21.8732C6.65251 22.2115 6.3793 22.5386 6.03509 22.7931C5.59209 23.0286 5.1352 23.2183 4.62428 23.1803C3.13166 23.0681 2.16694 21.7088 2.7396 20.2832C2.82913 20.0603 2.96805 19.877 3.14092 19.7205C3.38326 19.504 3.61016 19.5862 3.67962 19.9102C3.72284 20.1093 3.73365 20.3164 3.89263 20.476C4.11182 20.6989 4.45449 20.7969 4.72307 20.6799C5.00554 20.5566 5.05184 20.3037 5.0503 20.0271C5.04567 19.0883 4.68139 18.2727 4.18437 17.5188C3.26904 16.1295 2.01567 15.178 0.476752 14.6153C0.41964 14.5869 0.364072 14.5568 0.305417 14.5315C-0.0372514 14.3925 -0.0820144 14.2518 0.123278 13.9373C0.277633 13.7002 0.478295 13.5168 0.712915 13.3588C1.02626 13.147 1.37664 13.0332 1.77488 12.9431C1.25625 12.3456 0.853378 11.7371 0.572451 11.0464C0.164953 10.0396 0.0646227 9.00909 0.286894 7.94221C0.394943 7.42221 0.637281 6.96227 0.871901 6.49759L0.870357 6.49601C0.929012 6.43753 0.990755 6.38221 1.04324 6.31898C1.55106 5.70731 2.14688 5.26317 2.9557 5.1715C4.189 5.03241 5.28338 5.34852 6.21259 6.1957C6.62009 6.56713 6.8331 7.0492 6.81921 7.62136C6.80378 8.30732 6.50433 8.83839 5.97952 9.24775V9.24617C5.6847 9.37577 5.38216 9.48325 5.05184 9.48483ZM3.93122 22.3079C4.49925 22.6983 5.45162 22.5687 5.97952 22.0518C6.53829 21.5049 6.7019 20.8048 6.70499 20.0524C6.71271 17.7764 6.70808 15.5004 6.70808 13.226C6.70808 12.559 6.70808 11.8904 6.70808 11.2234C6.70808 11.1112 6.7266 10.9769 6.54446 11.0132C5.98106 11.1302 5.47015 11.3341 5.16761 11.8857C5.01017 12.1718 4.8589 12.205 4.58106 12.0169C3.65802 11.3878 3.07918 10.509 2.85845 9.40422C2.56672 7.94537 3.18414 6.83582 4.5471 6.30634C4.68757 6.2526 4.83266 6.20993 4.9901 6.15777C4.08712 5.54925 2.64081 5.47339 1.73475 6.45491C0.739155 7.53127 0.577082 8.81784 0.921295 10.1992C1.18987 11.2788 1.80421 12.1481 2.5837 12.902C2.71027 13.0237 2.78745 13.1533 2.72571 13.3224C2.66242 13.4931 2.50498 13.4852 2.35371 13.4979C1.88756 13.5374 1.42604 13.5959 1.02317 13.8819C0.839487 14.0115 0.839486 14.0842 1.05095 14.1712C1.85669 14.4983 2.58833 14.9599 3.24589 15.5352C4.38657 16.5357 5.25251 17.7243 5.57665 19.259C5.76188 20.1314 5.68161 20.9644 5.07654 21.6677C4.77863 22.0139 4.36959 22.1846 3.93122 22.3079ZM4.19517 8.49541C4.69528 8.97431 5.37445 8.98696 5.85295 8.54756C6.27588 8.15717 6.34843 7.34476 6.00267 6.8706C5.91932 6.7568 5.82208 6.70464 5.67698 6.70464C5.40686 6.70464 5.15372 6.79315 4.89286 6.83266C4.74622 6.85479 4.80796 6.92592 4.85427 7.00652C5.26177 7.72094 5.00399 8.31996 4.19517 8.49541ZM4.45449 21.3785C3.95129 21.3279 3.55923 21.1051 3.2675 20.6514C3.13012 21.0102 3.16871 21.3137 3.28447 21.6172C3.31535 21.6994 3.36474 21.7341 3.44809 21.7341C3.82163 21.7325 4.15658 21.6172 4.45449 21.3785ZM4.21524 7.84738C4.34026 7.82841 4.4514 7.75255 4.44368 7.56762C4.43751 7.4064 4.34335 7.28944 4.19363 7.29419C4.04853 7.29893 3.89881 7.37637 3.90653 7.56446C3.9127 7.72726 3.99142 7.84896 4.21524 7.84738Z" fill="#730220"/>
<path d="M8.64214 22.3871C8.6267 22.3523 8.61281 22.3175 8.59737 22.2827C8.56959 22.2037 8.54643 22.1215 8.51556 22.0441C8.11424 21.0436 7.90432 20.0083 7.90895 18.9193C7.9213 15.891 7.91203 12.8626 7.91203 9.8343C7.91203 9.22263 7.91821 8.61095 7.91203 8.00086C7.90895 7.74797 8.03398 7.64208 8.25779 7.62469C8.34886 7.61679 8.44147 7.62153 8.53254 7.62153C13.1802 7.62153 17.8278 7.62311 22.4739 7.62311C22.8876 7.62311 23.3012 7.61837 23.7134 7.62469C24.0036 7.62943 24.1008 7.73849 24.1116 8.04037C24.1147 8.12414 24.1178 8.20949 24.1209 8.29326C24.1193 10.4128 24.1147 12.5339 24.1147 14.6534C24.1147 15.9763 24.1178 17.2993 24.1209 18.6222C24.107 18.9114 24.0993 19.2007 24.0761 19.4899C23.9974 20.4778 23.7766 21.4213 23.3692 22.3254C23.1932 22.7158 22.9493 23.0667 22.7872 23.4618V23.465C22.7579 23.4855 22.7178 23.4982 22.7008 23.5251C22.3581 24.0862 21.9244 24.5666 21.4459 25.006C20.0181 26.3163 18.3619 27.0718 16.4324 27.1461C15.9647 27.1635 15.497 27.1461 15.0278 27.1429C14.9923 27.1398 14.9568 27.1366 14.9213 27.1335C14.5894 27.0323 14.2483 26.9691 13.9134 26.8822C12.623 26.5471 11.5116 25.8927 10.5299 24.9855C9.73188 24.2505 9.13607 23.3575 8.64214 22.3871ZM13.3206 26.4681C13.3392 26.4997 13.3577 26.4997 13.3762 26.4681C13.4997 26.4617 13.4827 26.6277 13.6 26.6498C13.9257 26.7099 14.2406 26.8221 14.5601 26.9043C14.8148 26.9691 15.0695 27.0813 15.355 27.0402C15.8443 26.9691 16.3367 26.9406 16.8291 27.0307C16.9109 27.045 17.0144 27.0671 17.0854 26.9596C17.0159 26.8648 16.9187 26.8648 16.8199 26.8648C16.7473 26.8648 16.6794 26.8584 16.613 26.811C16.3043 26.5977 15.9601 26.6388 15.6576 26.7747C15.3782 26.8995 15.1559 26.8679 14.8827 26.7241C15.0293 26.664 15.2624 26.8237 15.2501 26.5344C15.3766 26.536 15.5063 26.5281 15.6313 26.5408C16.3074 26.6119 16.9696 26.5202 17.6256 26.3637C17.6611 26.359 17.6951 26.3543 17.7306 26.3479C19.2942 25.9639 20.5969 25.1451 21.6558 23.906C22.9015 22.4503 23.4973 20.7433 23.5065 18.8277C23.5251 15.4042 23.5096 11.9807 23.5173 8.55722C23.5173 8.31855 23.471 8.23478 23.2179 8.23478C18.4236 8.24269 13.6293 8.24427 8.83508 8.23636C8.58348 8.23636 8.51248 8.30275 8.51248 8.56354C8.52019 12.0344 8.51865 15.5037 8.51711 18.9746C8.51711 19.3698 8.54335 19.7633 8.61127 20.1522C8.92615 21.9745 9.76121 23.5014 11.135 24.7057C11.879 25.3585 12.7094 25.858 13.651 26.1646C14.1233 26.3179 14.6033 26.4238 15.0865 26.5202C14.9105 26.5961 14.7376 26.6625 14.5385 26.5913C14.1572 26.4538 13.7652 26.3479 13.3793 26.2341C12.9795 26.1156 12.6091 25.9765 12.2757 25.7252C12.1877 25.6588 12.1105 25.5482 12.0133 25.5292C11.5425 25.4328 11.2832 25.0456 10.9467 24.7626C10.5299 24.4117 10.1857 23.9866 9.86 23.5567C9.56672 23.1694 9.36297 22.7111 9.10983 22.2906C8.71623 21.6347 8.62824 20.8824 8.47852 20.1537C8.38745 19.7096 8.37973 19.256 8.3998 18.7929C8.4461 17.7513 8.41369 16.7066 8.41369 15.6618C8.41369 13.302 8.41369 10.9407 8.41215 8.58092C8.41215 8.46712 8.46463 8.31855 8.26088 8.24269C8.33343 8.57934 8.29792 8.88597 8.30101 9.1926C8.30718 9.69047 8.30256 10.1899 8.30256 10.6878C8.30256 11.1952 8.30256 11.7041 8.30256 12.2115C8.30256 12.7093 8.30256 13.2088 8.30256 13.7067C8.30256 14.2045 8.30256 14.704 8.30256 15.2019C8.30256 15.6997 8.30256 16.1992 8.30256 16.6971C8.30256 17.2044 8.24081 17.7228 8.31953 18.2176C8.3998 18.717 8.18061 19.1469 8.13739 19.6132C8.07257 20.315 8.45382 20.8602 8.54335 21.494C8.59274 21.8513 8.65757 22.2179 8.96474 22.4661C8.97709 22.4772 8.99098 22.4961 8.99098 22.5135C9.00641 22.8296 9.11137 23.0857 9.4278 23.1995C9.47411 23.2169 9.4772 23.2485 9.46948 23.2864C9.40156 23.6246 9.67786 23.7764 9.84611 23.9692C10.1039 24.2648 10.4095 24.5129 10.6549 24.8259C10.7383 24.9318 10.8556 25.0519 10.976 25.0772C11.1319 25.1104 11.1921 25.2052 11.2399 25.3206C11.3063 25.4802 11.4051 25.5829 11.5749 25.6161C11.6752 25.6367 11.7632 25.6873 11.8357 25.7631C12.1491 26.0887 12.5998 26.1662 12.9625 26.4064C13.0459 26.4665 13.191 26.517 13.3206 26.4681ZM15.6035 7.78749C13.3808 7.78749 11.1581 7.78749 8.93541 7.78749C8.72549 7.78749 8.51711 7.80961 8.30719 7.83016C8.06022 7.85387 8.02163 7.98347 8.02935 8.18421C8.03089 8.23794 8.017 8.30749 8.08954 8.32171C8.13894 8.3312 8.16518 8.2822 8.19296 8.24427C8.31027 8.08463 8.46154 8.01034 8.66375 8.01034C13.2558 8.01351 17.8479 8.01351 22.4399 8.00876C22.6391 8.00876 22.8227 8.10044 23.0357 8.04196C23.4818 7.91709 23.7365 8.13521 23.7365 8.60305C23.7365 11.7626 23.7411 14.9237 23.7303 18.0832C23.7288 18.4673 23.7628 18.8498 23.6593 19.2465C23.6053 19.4536 23.6393 19.7191 23.5822 19.9688C23.5065 20.3071 23.417 20.6548 23.4463 21.0088C23.4618 21.1843 23.38 21.2981 23.2796 21.4134C23.1947 21.5114 23.1376 21.6158 23.1145 21.7564C23.0851 21.9271 23.0388 22.1294 22.9262 22.2416C22.7502 22.4171 22.7162 22.621 22.6869 22.8407C22.6792 22.9039 22.6869 22.9671 22.6236 23.0145C22.3643 23.2074 22.2377 23.5251 21.9722 23.7195C21.8657 23.7969 21.7716 24.0229 21.8596 24.1099C21.9692 24.2189 22.0973 24.0482 22.1914 23.9534C22.2732 23.8712 22.3797 23.8048 22.3427 23.6483C22.3118 23.5156 22.4276 23.4239 22.5171 23.3923C22.6391 23.3496 22.6684 23.2564 22.7332 23.1694C22.903 22.9387 22.9647 22.6542 23.1253 22.4139C23.3028 22.1452 23.4077 21.8244 23.5312 21.5209C23.6501 21.2301 23.684 20.9171 23.7473 20.6105C23.8415 20.1522 23.9511 19.697 23.9526 19.2291C23.9603 15.7029 23.9572 12.1751 23.9557 8.64889C23.9557 8.49083 23.9248 8.33278 23.9356 8.1763C23.9603 7.83806 23.9279 7.79065 23.5837 7.78591C23.1731 7.78116 22.7625 7.78432 22.352 7.78432C20.103 7.78749 17.8525 7.78749 15.6035 7.78749ZM17.675 26.8774C17.7306 26.8916 17.8093 26.7873 17.9112 26.7541C18.3958 26.6008 18.8666 26.3985 19.3667 26.2958C19.4084 26.2863 19.4485 26.2626 19.4856 26.2389C19.8113 26.0302 20.0814 25.7505 20.4318 25.5608C20.9319 25.2921 21.395 24.9412 21.6867 24.4165C21.7237 24.3485 21.9028 24.3438 21.7978 24.2173C21.6944 24.0941 21.628 24.2505 21.5462 24.2853C21.4768 24.3153 21.4443 24.377 21.4042 24.4449C21.2128 24.7674 20.9087 25.025 20.6216 25.1878C20.2342 25.4059 19.9008 25.7078 19.4918 25.8927C19.2432 26.0049 19.0503 26.2025 18.7431 26.2405C18.2199 26.3053 17.7429 26.6198 17.1919 26.5803C17.1564 26.5771 17.1178 26.5834 17.0823 26.5913C17.0421 26.6008 17.019 26.6324 17.0267 26.6735C17.0313 26.6972 17.0576 26.7352 17.073 26.7336C17.2675 26.7209 17.4249 26.8458 17.675 26.8774Z" fill="#730220"/>
<path d="M15.9956 6.42331C18.6212 6.42331 21.2468 6.42173 23.8708 6.42647C24.0854 6.42647 24.3663 6.34428 24.3987 6.70623C24.4188 6.94331 24.2629 7.03973 23.8708 7.03973C18.7215 7.03973 13.5722 7.03973 8.42295 7.03973C8.27785 7.03973 8.13122 7.04131 7.98612 7.03973C7.74842 7.03815 7.58634 6.9038 7.59252 6.70307C7.60178 6.4407 7.78546 6.42173 7.98304 6.42173C10.6534 6.42331 13.3237 6.42331 15.9956 6.42331Z" fill="#730220"/>
<path d="M15.6036 7.78741C17.8541 7.78741 20.1046 7.78741 22.3535 7.78741C22.7641 7.78741 23.1747 7.78425 23.5853 7.78899C23.9295 7.79373 23.9604 7.84115 23.9372 8.17939C23.9264 8.33586 23.9573 8.4955 23.9573 8.65197C23.9588 12.1782 23.9619 15.706 23.9542 19.2322C23.9527 19.6985 23.8431 20.1552 23.7489 20.6136C23.6856 20.9202 23.6517 21.2332 23.5328 21.524C23.4093 21.8275 23.3044 22.1483 23.1269 22.417C22.9679 22.6573 22.9061 22.9418 22.7348 23.1725C22.67 23.261 22.6406 23.3527 22.5187 23.3954C22.4276 23.427 22.3134 23.5187 22.3443 23.6514C22.3813 23.8079 22.2748 23.8743 22.193 23.9565C22.0988 24.0513 21.9707 24.222 21.8611 24.1129C21.7732 24.026 21.8673 23.8 21.9738 23.7225C22.2393 23.5281 22.3674 23.2104 22.6252 23.0176C22.69 22.9702 22.6808 22.907 22.6885 22.8438C22.7178 22.6241 22.7518 22.4218 22.9277 22.2447C23.0404 22.1325 23.0867 21.9302 23.116 21.7595C23.1392 21.6188 23.1963 21.5145 23.2812 21.4165C23.3815 21.3011 23.4618 21.1873 23.4479 21.0119C23.4186 20.6579 23.5081 20.3101 23.5837 19.9719C23.6393 19.7222 23.6069 19.4582 23.6609 19.2496C23.7643 18.8529 23.7304 18.4704 23.7319 18.0863C23.7412 14.9268 23.7381 11.7672 23.7381 8.60614C23.7381 8.13829 23.4834 7.92018 23.0373 8.04504C22.8243 8.1051 22.6406 8.01185 22.4415 8.01185C17.8494 8.01659 13.2574 8.01659 8.66532 8.01343C8.46311 8.01343 8.31339 8.08771 8.19454 8.24735C8.16675 8.28528 8.14051 8.33428 8.09112 8.3248C8.01857 8.31057 8.03401 8.23945 8.03092 8.18729C8.02166 7.98656 8.06179 7.85853 8.30876 7.83325C8.51868 7.8127 8.72706 7.79057 8.93698 7.79057C11.1582 7.78583 13.3809 7.78741 15.6036 7.78741Z" fill="#730220"/>
<path d="M15.0849 26.5218C15.139 26.525 15.193 26.5281 15.2485 26.5313C15.2609 26.8205 15.0278 26.6593 14.8812 26.7209C15.1544 26.8648 15.3767 26.898 15.656 26.7715C15.9586 26.6356 16.3028 26.5945 16.6115 26.8079C16.6794 26.8553 16.7458 26.8616 16.8183 26.8616C16.9171 26.8616 17.0159 26.8632 17.0838 26.9564C17.0128 27.0639 16.9079 27.0434 16.8276 27.0276C16.3352 26.9375 15.8428 26.9659 15.3535 27.0371C15.068 27.0781 14.8117 26.9675 14.5586 26.9011C14.2391 26.8189 13.9242 26.7067 13.5985 26.6467C13.4812 26.6245 13.4982 26.4601 13.3747 26.4649C13.3562 26.4333 13.3376 26.4333 13.3191 26.4649C13.191 26.5139 13.0444 26.4633 12.9641 26.4096C12.6014 26.1693 12.1506 26.0919 11.8373 25.7663C11.7648 25.6904 11.6768 25.6383 11.5764 25.6193C11.4066 25.5861 11.3079 25.4834 11.2415 25.3237C11.1936 25.2083 11.1334 25.1135 10.9775 25.0803C10.8571 25.0535 10.7398 24.9349 10.6565 24.829C10.4126 24.5161 10.1054 24.2679 9.84766 23.9724C9.67941 23.7795 9.40312 23.6262 9.47103 23.2896C9.47875 23.2516 9.47566 23.2184 9.42936 23.2026C9.11293 23.0888 9.00797 22.8328 8.99253 22.5167C8.99099 22.5009 8.97864 22.4803 8.96629 22.4693C8.65912 22.2211 8.5943 21.8544 8.5449 21.4972C8.45692 20.8634 8.07566 20.3181 8.13895 19.6164C8.18217 19.1501 8.40135 18.7186 8.32109 18.2207C8.24082 17.726 8.30411 17.2076 8.30411 16.7002C8.30411 16.2024 8.30411 15.7029 8.30411 15.205C8.30411 14.7072 8.30411 14.2077 8.30411 13.7098C8.30411 13.2119 8.30411 12.7125 8.30411 12.2146C8.30411 11.7073 8.30411 11.1983 8.30411 10.691C8.30411 10.1931 8.30874 9.69364 8.30257 9.19576C8.29948 8.88913 8.33498 8.58251 8.26243 8.24585C8.46618 8.3233 8.4137 8.47187 8.4137 8.58409C8.41679 10.9439 8.41524 13.3052 8.41524 15.665C8.41524 16.7081 8.44612 17.7545 8.40135 18.796C8.38129 19.2591 8.38746 19.7128 8.48007 20.1569C8.63134 20.8855 8.71932 21.6379 9.11139 22.2938C9.36298 22.7158 9.56828 23.1726 9.86155 23.5598C10.1872 23.9897 10.5315 24.4149 10.9482 24.7658C11.2847 25.0487 11.544 25.4375 12.0148 25.5324C12.1105 25.5513 12.1892 25.662 12.2772 25.7284C12.6106 25.9781 12.9811 26.1187 13.3809 26.2373C13.7667 26.3511 14.1588 26.457 14.5401 26.5945C14.7361 26.664 14.909 26.5977 15.0849 26.5218Z" fill="#730220"/>
<path d="M17.675 26.8773C17.4249 26.8456 17.2675 26.7192 17.0761 26.7334C17.0622 26.735 17.0344 26.6971 17.0298 26.6734C17.0205 26.6323 17.0452 26.6007 17.0853 26.5912C17.1208 26.5833 17.1579 26.577 17.1949 26.5801C17.746 26.618 18.2229 26.3051 18.7462 26.2403C19.0534 26.2024 19.2463 26.0032 19.4948 25.8926C19.9054 25.7092 20.2388 25.4058 20.6247 25.1877C20.9118 25.0264 21.2159 24.7672 21.4073 24.4448C21.4474 24.3784 21.4798 24.3168 21.5493 24.2852C21.6311 24.2504 21.6959 24.0923 21.8009 24.2172C21.9074 24.3436 21.7284 24.3484 21.6898 24.4163C21.398 24.9411 20.9334 25.292 20.4349 25.5607C20.0845 25.7487 19.8143 26.0285 19.4887 26.2387C19.4516 26.2624 19.4115 26.2877 19.3698 26.2956C18.8697 26.3999 18.3989 26.6007 17.9142 26.754C17.8093 26.7872 17.7305 26.8931 17.675 26.8773Z" fill="#730220"/>
<path d="M13.3757 26.468C13.3568 26.4998 13.338 26.4998 13.3192 26.468C13.338 26.468 13.3568 26.468 13.3757 26.468Z" fill="#730220"/>
<path d="M11.808 29.0885C11.6567 29.2449 11.6135 29.3903 11.5641 29.5294C11.5178 29.659 11.4576 29.7191 11.3202 29.6669C11.1797 29.6132 11.1458 29.5294 11.2044 29.384C11.3434 29.0379 11.4715 28.687 11.6027 28.3361C11.6274 28.2713 11.6536 28.1986 11.7323 28.2239C11.8512 28.2618 11.9886 28.2855 12.0256 28.4436C12.0765 28.6617 12.1275 28.8798 12.1815 29.0979C12.1908 29.1327 12.2155 29.1627 12.2371 29.2007C12.3683 29.0458 12.3775 28.8482 12.4594 28.6823C12.5211 28.559 12.5875 28.5463 12.6986 28.6032C12.802 28.6554 12.8962 28.6854 12.8298 28.8451C12.6955 29.1627 12.589 29.4931 12.4485 29.8092C12.413 29.8898 12.4455 30.0731 12.2726 30.0352C12.1275 30.0036 11.9963 29.9388 11.9623 29.7586C11.9206 29.55 11.8666 29.3429 11.808 29.0885Z" fill="#730220"/>
<path d="M16.8044 29.4125C16.7627 29.2339 16.8384 29.1738 16.9649 29.1501C17.2104 29.1059 17.4589 29.0917 17.7028 29.1233C17.996 29.1612 18.1705 29.5753 17.9744 29.8298C17.8201 30.0289 17.905 30.1111 18.0346 30.2312C18.1072 30.2976 18.2569 30.3814 18.155 30.4825C18.0639 30.5742 17.8957 30.579 17.7753 30.4746C17.6858 30.3956 17.6055 30.3039 17.5268 30.2138C17.4728 30.1538 17.4157 30.1048 17.3385 30.1522C17.269 30.1949 17.2922 30.2707 17.3107 30.3308C17.3724 30.5458 17.3138 30.6564 17.0792 30.6422C16.9788 30.6359 16.9264 30.5932 16.9156 30.4936C16.877 30.1222 16.8384 29.7507 16.8044 29.4125ZM17.4357 29.4236C17.3524 29.4741 17.1888 29.4283 17.2073 29.6022C17.2165 29.6986 17.2304 29.8187 17.3832 29.7934C17.5052 29.7729 17.6287 29.7602 17.624 29.5895C17.621 29.4678 17.5345 29.4394 17.4357 29.4236Z" fill="#730220"/>
<path d="M15.4276 29.5265C15.3936 29.724 15.3643 29.9564 15.3149 30.184C15.2439 30.5095 15.0016 30.6739 14.662 30.6407C14.2622 30.6028 14.0307 30.391 14.0415 30.0322C14.0508 29.762 14.1094 29.4933 14.1326 29.223C14.148 29.0365 14.2607 29.057 14.3857 29.0649C14.5308 29.0744 14.5416 29.1645 14.5246 29.2799C14.4938 29.4933 14.4675 29.7066 14.432 29.9184C14.3965 30.1334 14.5061 30.2614 14.6882 30.2725C14.8596 30.2835 14.9645 30.1634 14.9723 29.9658C14.9784 29.7983 15.0078 29.6308 15.0263 29.4632C15.0433 29.3162 15.0309 29.1534 15.2609 29.174C15.5001 29.1961 15.3983 29.37 15.4276 29.5265Z" fill="#730220"/>
<path d="M19.6585 29.2766C19.6585 29.117 19.6569 28.9574 19.6585 28.7993C19.66 28.6444 19.6384 28.5069 19.8422 28.4168C20.0428 28.3283 20.1216 28.4247 20.2281 28.5417C20.4642 28.8025 20.7035 29.0601 20.9381 29.3225C20.9906 29.3809 21.0863 29.4505 21.0168 29.5343C20.9458 29.618 20.8393 29.6575 20.7189 29.607C20.4256 29.4837 20.171 29.588 20.0428 29.8788C19.9811 30.0179 19.8484 30.0685 19.7295 30.0527C19.6122 30.0369 19.6739 29.8978 19.6647 29.8124C19.6554 29.7192 19.6616 29.6259 19.6616 29.5311C19.6616 29.4473 19.6616 29.362 19.6616 29.2782C19.66 29.2766 19.6585 29.2766 19.6585 29.2766ZM20.0289 28.8467C20.0413 29.0095 19.9224 29.1992 20.0521 29.3114C20.1308 29.3794 20.2435 29.2608 20.3485 29.1976C20.2373 29.0759 20.1339 28.9605 20.0289 28.8467Z" fill="#730220"/>
<path d="M9.97112 27.7671C10.2104 27.764 10.3014 27.9205 10.3122 28.0864C10.323 28.2666 10.2042 28.4152 10.0159 28.4231C9.81367 28.431 9.69636 28.2935 9.69173 28.088C9.68556 27.8841 9.81985 27.7987 9.97112 27.7671Z" fill="#730220"/>
<path d="M22.3118 28.0897C22.3026 28.3062 22.176 28.4264 21.9985 28.4248C21.8225 28.4232 21.6898 28.3078 21.6929 28.0976C21.6975 27.8937 21.8148 27.7767 22.0016 27.7752C22.1945 27.7736 22.2918 27.9079 22.3118 28.0897Z" fill="#730220"/>
<path d="M26.8283 14.1144C27.3855 13.4095 27.9211 12.7346 28.4536 12.0581C28.6311 11.8321 28.7948 11.5934 28.98 11.3737C29.1004 11.2299 29.2517 11.0829 29.4477 11.2488C29.6329 11.4069 29.599 11.5887 29.4569 11.7673C28.8843 12.488 28.3132 13.2087 27.7436 13.931C27.6541 14.0448 27.5538 14.1539 27.4889 14.3262C27.7251 14.3088 27.9304 14.2851 28.1357 14.2788C28.3302 14.274 28.4814 14.3373 28.4861 14.5759C28.4907 14.813 28.344 14.8952 28.1496 14.8889C27.8671 14.8794 27.6109 14.9995 27.3392 15.0295C26.8684 15.0817 26.748 15.4405 26.6693 15.8277C26.5751 16.2861 26.481 16.746 26.4872 17.2202C26.4887 17.2755 26.4841 17.3324 26.4764 17.3893C26.4486 17.5979 26.3915 17.7955 26.1368 17.7797C25.8605 17.7639 25.8775 17.5395 25.879 17.3387C25.8883 16.5722 26.0102 15.8261 26.2633 15.1038C26.3143 14.9568 26.3266 14.8177 26.2989 14.6644C26.2232 14.2487 26.1244 13.8394 25.9809 13.4442C25.9037 13.2309 25.9191 13.0412 26.1584 12.9653C26.3868 12.891 26.4887 13.0491 26.5504 13.2451C26.6384 13.5248 26.7295 13.8062 26.8283 14.1144Z" fill="#730220"/>
<path d="M3.851 13.4615C3.64107 13.0854 3.32619 12.7914 3.07459 12.4484C2.9048 12.2161 2.72729 11.9885 2.55133 11.7609C2.41858 11.5886 2.34449 11.4052 2.54978 11.2488C2.75662 11.0891 2.90634 11.2251 3.03137 11.3958C3.70745 12.3141 4.47305 13.1581 5.14449 14.108C5.27106 13.9768 5.27569 13.8156 5.322 13.6733C5.36831 13.5311 5.40227 13.3841 5.45166 13.2434C5.51803 13.0553 5.62454 12.891 5.85298 12.9668C6.07988 13.0427 6.0768 13.226 6.01506 13.4299C5.88694 13.8504 5.77889 14.2755 5.70017 14.7086C5.67548 14.8461 5.6801 14.9662 5.73259 15.0895C6.03821 15.8276 6.06445 16.6195 6.15397 17.4003C6.1725 17.5615 6.08297 17.6642 5.98727 17.767C5.64923 17.7923 5.56279 17.7148 5.54427 17.3797C5.52884 17.0952 5.51803 16.8107 5.4424 16.5341C5.43931 16.4962 5.43622 16.4598 5.43314 16.4219C5.4069 16.1532 5.3822 15.8829 5.27724 15.6301C5.26798 15.5937 5.26026 15.5574 5.251 15.521C5.20315 15.374 5.18771 15.2033 5.01329 15.1417C4.66908 15.02 4.32178 14.9125 3.95441 14.8935C3.56698 14.8746 3.48054 14.7671 3.52994 14.3672C3.55927 14.3451 3.58859 14.3245 3.61792 14.3024C3.91583 14.2218 4.21528 14.353 4.55949 14.3135C4.3048 14.0052 4.1381 13.6828 3.851 13.4615Z" fill="#730220"/>
<path d="M22.8938 19.2939C22.8891 19.3334 22.8845 19.3729 22.8799 19.414C22.724 19.5515 22.8259 19.7286 22.8089 19.8882C22.8166 19.8977 22.8166 19.9087 22.8089 19.9182C22.7255 20.0415 22.6931 20.1727 22.7471 20.3165C22.5573 21.3818 22.1081 22.3254 21.4614 23.1757C20.5121 24.4228 19.2927 25.2652 17.8047 25.6904C16.9388 25.937 16.0543 25.9844 15.1621 25.8801C13.8023 25.7204 12.6106 25.1562 11.5641 24.2679C10.6781 23.5171 10.0298 22.583 9.59144 21.4956C9.56829 21.4371 9.57138 21.3676 9.56211 21.3044C9.58372 21.1321 9.51426 20.9977 9.40004 20.8792C9.39387 20.8681 9.39232 20.8555 9.3985 20.8444C9.3985 20.7591 9.43863 20.6642 9.34293 20.6026L9.34447 20.6042C9.29199 20.1885 9.19475 19.7728 9.1932 19.3555C9.18086 16.0459 9.18394 12.7346 9.18857 9.42493C9.18857 9.08985 9.27964 8.96499 9.64701 8.96657C13.8625 8.97763 18.0779 8.97289 22.2933 8.97289C22.7703 8.97289 22.8552 9.05824 22.8552 9.54189C22.8552 12.6824 22.8552 15.8246 22.8567 18.9651C22.8567 19.0742 22.8243 19.1912 22.8938 19.2939ZM16.0203 12.3553C14.946 12.3553 13.8717 12.3648 12.7974 12.349C12.5335 12.3458 12.4779 12.4359 12.4794 12.6856C12.4887 14.6977 12.4841 16.7097 12.4856 18.7202C12.4856 18.973 12.498 19.2244 12.5396 19.4772C12.8607 21.4039 14.7176 22.749 16.5884 22.4013C18.2369 22.0946 19.4872 20.6516 19.4995 18.9999C19.5134 16.8851 19.5026 14.7704 19.5088 12.654C19.5103 12.4248 19.447 12.3474 19.2139 12.349C18.1504 12.3616 17.0854 12.3553 16.0203 12.3553ZM9.75815 12.2652C9.73499 12.2794 9.71029 12.2936 9.68714 12.3063C9.68714 12.428 9.68714 12.5481 9.68714 12.6698C9.68714 14.7387 9.68405 16.8077 9.69023 18.8766C9.69332 19.6227 9.82452 20.3497 10.073 21.0531C10.5361 22.357 11.3357 23.4002 12.4424 24.1841C13.617 25.0155 14.929 25.379 16.363 25.2968C17.9251 25.2083 19.2433 24.5761 20.3824 23.5045C20.5368 23.3607 20.4966 23.2769 20.3685 23.1504C19.9718 22.7585 19.5798 22.3633 19.2016 21.954C19.0426 21.7833 18.9485 21.8022 18.7802 21.9524C17.5454 23.0556 16.1423 23.3701 14.5864 22.8154C13.0011 22.2511 11.8898 20.6263 11.8836 18.9051C11.879 17.7292 11.845 16.5532 11.8975 15.3789C11.9253 14.7356 11.7694 14.263 11.2878 13.8378C10.7429 13.3542 10.2644 12.7931 9.75815 12.2652ZM12.5967 9.48183C12.6755 9.5814 12.7063 9.62724 12.7449 9.66675C13.3731 10.3116 14.006 10.9517 14.6296 11.5998C14.7469 11.7231 14.8766 11.7373 15.0278 11.7357C16.5884 11.7325 18.1504 11.7325 19.711 11.7357C20.0367 11.7357 20.1216 11.8384 20.12 12.1466C20.1123 13.773 20.1123 15.3994 20.1061 17.0258C20.1061 17.1696 20.1571 17.2629 20.2589 17.364C20.6479 17.7481 21.0214 18.1496 21.4042 18.5416C21.6852 18.8276 21.9723 19.1074 22.3119 19.4441C22.3119 19.1327 22.3119 18.9098 22.3119 18.6854C22.3119 15.7329 22.3072 12.7804 22.318 9.82797C22.3196 9.53399 22.2362 9.47234 21.963 9.47392C19.0611 9.48499 16.1593 9.48025 13.2589 9.48025C13.0583 9.48183 12.8576 9.48183 12.5967 9.48183ZM13.8748 11.7357C13.7961 11.6393 13.7637 11.595 13.7266 11.5571C13.0768 10.8838 12.4239 10.212 11.7756 9.53873C11.7061 9.46602 11.6228 9.48499 11.544 9.48499C11.0022 9.48183 10.462 9.48973 9.92022 9.47867C9.73962 9.47551 9.67788 9.53241 9.68251 9.71733C9.69177 10.1962 9.69023 10.6751 9.6856 11.1541C9.68405 11.2758 9.72264 11.3674 9.806 11.4528C10.1857 11.8448 10.5515 12.251 10.9405 12.6319C11.24 12.9243 11.4946 13.2704 11.8821 13.5233C11.8821 13.046 11.8836 12.6066 11.8821 12.1672C11.8805 11.8147 11.9515 11.7389 12.3019 11.7373C12.8051 11.7341 13.3083 11.7357 13.8748 11.7357ZM20.9458 22.8454C20.9921 22.7885 21.0338 22.7427 21.0708 22.6921C21.5061 22.0915 21.8102 21.4261 22.0479 20.7196C22.176 20.3386 22.1112 20.0968 21.8195 19.8281C21.2947 19.3445 20.8146 18.8134 20.313 18.3029C20.2759 18.265 20.2219 18.2096 20.1833 18.216C20.1092 18.2286 20.1169 18.314 20.1092 18.3772C20.103 18.423 20.1046 18.4704 20.1077 18.5178C20.1586 19.4535 19.9842 20.3292 19.4655 21.1163C19.393 21.2253 19.4038 21.3059 19.5026 21.4039C19.9286 21.8291 20.3438 22.2638 20.7652 22.6937C20.8162 22.7442 20.8763 22.7869 20.9458 22.8454Z" fill="#730220"/>
<path d="M22.8938 19.2937C22.8243 19.191 22.8567 19.074 22.8567 18.965C22.8552 15.8244 22.8552 12.6823 22.8552 9.5417C22.8552 9.05805 22.7718 8.9727 22.2933 8.9727C18.0779 8.9727 13.8625 8.97586 9.64702 8.96638C9.27966 8.9648 9.19013 9.09124 9.18859 9.42474C9.1855 12.7344 9.18087 16.0457 9.19322 19.3554C9.19476 19.771 9.29201 20.1867 9.34449 20.604C9.21946 20.4823 9.22718 20.3084 9.20557 20.1583C9.14383 19.7126 9.07745 19.2684 9.07745 18.8148C9.08363 15.6758 9.08054 12.5368 9.08054 9.39629C9.08054 8.93635 9.15772 8.86206 9.61152 8.86206C13.8702 8.86206 18.1304 8.86206 22.389 8.86206C22.8506 8.86206 22.9108 8.92212 22.9108 9.39787C22.9108 12.5179 22.9108 15.6395 22.9108 18.7595C22.9108 18.9381 22.9 19.1151 22.8938 19.2937Z" fill="#730220"/>
<path d="M9.40002 20.8792C9.51425 20.9961 9.58371 21.132 9.5621 21.3043C9.45251 21.1842 9.40002 21.0419 9.40002 20.8792Z" fill="#730220"/>
<path d="M22.8089 19.8882C22.8259 19.7286 22.724 19.5516 22.8799 19.4141C22.8691 19.5737 22.8799 19.7365 22.8089 19.8882Z" fill="#730220"/>
<path d="M22.7456 20.3165C22.6916 20.1711 22.724 20.0399 22.8073 19.9182C22.795 20.0526 22.8289 20.1948 22.7456 20.3165Z" fill="#730220"/>
<path d="M9.34294 20.6025C9.43977 20.6642 9.40072 20.759 9.39916 20.8444C9.33201 20.7748 9.33669 20.6879 9.34294 20.6025Z" fill="#730220"/>
<path d="M13.3757 26.4682C13.3568 26.4682 13.338 26.4682 13.3192 26.4682C13.338 26.4364 13.3568 26.4364 13.3757 26.4682Z" fill="#730220"/>
<path d="M16.6825 16.3761C16.6825 15.9098 16.6794 15.4435 16.6841 14.9773C16.6856 14.6548 16.7798 14.5648 17.0993 14.5616C17.4389 14.56 17.7784 14.5553 18.118 14.5584C18.4221 14.5616 18.5039 14.6359 18.5039 14.9362C18.507 16.3271 18.5055 17.7195 18.5055 19.1104C18.5055 19.3396 18.3851 19.4613 18.1674 19.4661C17.7908 19.4724 17.4142 19.4629 17.0375 19.4676C16.8076 19.4708 16.7057 19.2954 16.5837 19.1452C16.1701 18.6347 15.8058 18.0831 15.3088 17.5583C15.3088 18.0878 15.3103 18.562 15.3088 19.0361C15.3072 19.376 15.2131 19.4676 14.8781 19.4692C14.5571 19.4708 14.236 19.4708 13.9134 19.4676C13.6062 19.4645 13.4905 19.3538 13.4905 19.0472C13.4874 17.6927 13.4858 16.3397 13.4889 14.9852C13.4889 14.6643 13.5923 14.5648 13.9011 14.5616C14.2406 14.5584 14.5802 14.5663 14.9198 14.56C15.1019 14.5569 15.2254 14.6343 15.3366 14.7781C15.7564 15.3218 16.184 15.8592 16.61 16.3982C16.6362 16.3903 16.6594 16.3824 16.6825 16.3761ZM14.7083 17.0225C14.7068 17.0225 14.7068 17.0225 14.7052 17.0225C14.7052 16.4867 14.6944 15.9525 14.7099 15.4167C14.7176 15.1448 14.5509 15.1764 14.3873 15.1749C14.2267 15.1733 14.0863 15.1559 14.0894 15.4104C14.1017 16.4709 14.1017 17.5315 14.0894 18.592C14.0863 18.8528 14.2159 18.8465 14.3965 18.8481C14.5926 18.8496 14.7253 18.8386 14.7145 18.5699C14.6944 18.0562 14.7083 17.5394 14.7083 17.0225ZM17.9004 17.0431C17.8988 17.0431 17.8988 17.0431 17.8973 17.0431C17.8973 16.4883 17.8942 15.9351 17.8988 15.3803C17.9019 15.08 17.6827 15.2001 17.5438 15.1796C17.3956 15.159 17.2799 15.1764 17.2814 15.3898C17.2891 16.4693 17.2907 17.5504 17.283 18.6299C17.2814 18.9255 17.479 18.8307 17.6256 18.8433C17.7846 18.8575 17.9112 18.8512 17.905 18.6189C17.8911 18.0957 17.9004 17.5694 17.9004 17.0431ZM15.3288 15.7502C15.2794 16.2307 15.2625 16.6384 15.636 16.9356C15.67 16.9625 15.6885 17.013 15.7163 17.0494C16.0265 17.4445 16.3383 17.8397 16.6486 18.2348C16.6393 17.9045 16.7798 17.5773 16.5498 17.2928C16.15 16.7949 15.7579 16.2923 15.3288 15.7502Z" fill="#730220"/>
</g>
<defs>
<clipPath id="clip0_166_3530">
<rect width="32" height="32" fill="white"/>
</clipPath>
</defs>
</svg>
